<svg width="646" height="659" viewBox="0 0 646 659" fill="none" xmlns="http://www.w3.org/2000/svg">
<g opacity="0.7">
<path opacity="0.7" d="M338.8 353.16L338.21 353.02V330.42C361.028 324.785 381.695 312.585 397.653 295.329C413.611 278.073 424.162 256.518 428 233.33H428.29C434.06 233.33 438.73 224.56 438.73 213.75C438.73 207.04 436.93 201.13 434.19 197.6C434.603 193.467 434.813 189.277 434.82 185.03C434.839 168.119 431.426 151.379 424.787 135.826C418.149 120.272 408.424 106.226 396.2 94.54C394.522 86.184 391.528 78.1473 387.33 70.73C378.43 55.05 363.62 38.73 369.66 21.73L330.56 25.73L330.2 -0.0300293C318 2.15997 312.89 16.3 305.65 26.37C288.24 50.59 253.3 53.96 230.19 72.82C222.34 79.23 204.68 98.72 208 111.5C192.469 132.868 184.121 158.614 184.16 185.03C184.16 189.27 184.37 193.46 184.79 197.6C182.05 201.13 180.25 207.04 180.25 213.75C180.25 224.57 184.93 233.33 190.69 233.33H190.98C194.818 256.518 205.369 278.073 221.327 295.329C237.285 312.585 257.952 324.785 280.77 330.42V353.02L280.18 353.16C266.72 351.59 130.88 341.22 160.67 564.62L178.94 631.98L183.01 631.82C183.543 638.578 186.449 644.93 191.215 649.751C195.98 654.573 202.298 657.553 209.049 658.165C215.801 658.777 222.551 656.981 228.105 653.094C233.66 649.208 237.661 643.482 239.4 636.93C265.27 636.84 294.49 636.76 309.4 636.76C324.31 636.76 353.58 636.85 379.4 636.93C381.111 643.516 385.105 649.281 390.67 653.198C396.235 657.114 403.01 658.926 409.787 658.313C416.565 657.699 422.904 654.699 427.675 649.847C432.446 644.995 435.34 638.607 435.84 631.82L439.91 631.98L458.18 564.62C488.11 341.22 352.26 351.59 338.8 353.16Z" fill="url(#paint0_linear)"/>
</g>
<path d="M645.61 625.16H0V647.04H645.61V625.16Z" fill="#E0E0E0"/>
<path d="M618.25 647.05H27.36V656H618.25V647.05Z" fill="#E0E0E0"/>
<path opacity="0.1" d="M618.25 647.05H27.36V650.03H618.25V647.05Z" fill="black"/>
<path opacity="0.1" d="M193.4 626.83C193.4 626.83 280.03 626.49 309.49 626.49C338.95 626.49 425.58 626.83 425.58 626.83V614.22H193.4V626.83Z" fill="black"/>
<path d="M425.59 624.3C425.59 624.3 338.96 623.96 309.5 623.96C280.04 623.96 193.41 624.3 193.41 624.3V464.96C193.41 434.173 205.64 404.646 227.408 382.876C249.177 361.105 278.703 348.873 309.49 348.87V348.87C324.736 348.869 339.833 351.871 353.919 357.704C368.005 363.538 380.804 372.088 391.585 382.869C402.366 393.649 410.918 406.447 416.752 420.532C422.587 434.617 425.59 449.714 425.59 464.96V624.3Z" fill="#6C63FF"/>
<path d="M298.5 290.83H320.5C324.945 290.83 329.208 292.596 332.351 295.739C335.494 298.882 337.26 303.145 337.26 307.59V353.92C337.26 361.283 334.335 368.343 329.129 373.549C323.923 378.755 316.862 381.68 309.5 381.68V381.68C302.138 381.68 295.077 378.755 289.871 373.549C284.665 368.343 281.74 361.283 281.74 353.92V307.59C281.74 303.145 283.506 298.882 286.649 295.739C289.792 292.596 294.055 290.83 298.5 290.83V290.83Z" fill="#FDB797"/>
<path opacity="0.1" d="M281.73 332.89C299.965 337.377 319.015 337.377 337.25 332.89V293.35H281.73V332.89Z" fill="black"/>
<path d="M309.5 311.02C376.404 311.02 430.64 256.784 430.64 189.88C430.64 122.976 376.404 68.74 309.5 68.74C242.596 68.74 188.36 122.976 188.36 189.88C188.36 256.784 242.596 311.02 309.5 311.02Z" fill="#333333"/>
<path d="M309.5 333.73C373.615 333.73 425.59 281.755 425.59 217.64C425.59 153.525 373.615 101.55 309.5 101.55C245.385 101.55 193.41 153.525 193.41 217.64C193.41 281.755 245.385 333.73 309.5 333.73Z" fill="#FDB797"/>
<path d="M232.84 81.41C255.17 63.18 288.95 59.93 305.78 36.51C312.78 26.78 317.71 13.11 329.51 10.99L329.86 35.89L367.65 32.01C361.82 48.43 376.13 64.24 384.73 79.39C391.072 90.5954 394.538 103.198 394.82 116.07C381.7 123.95 365.43 115.35 350.82 110.76C336.62 106.3 321.53 105.84 306.65 105.42C299.02 105.2 291.3 105 283.85 106.67C277.32 108.14 271.21 111.01 265.03 113.6C254.98 117.81 223.24 133.69 213.9 123.45C203.32 111.84 224.22 88.45 232.84 81.41Z" fill="#333333"/>
<path opacity="0.1" d="M239.15 159.42C245.31 163.15 252.55 164.62 259.68 165.6C289.416 169.662 319.696 166.26 347.79 155.7C352.39 167.36 363.62 175.37 375.56 179.18C387.5 182.99 400.25 183.18 412.78 183.33C415.54 183.33 418.5 183.33 420.78 181.8C426.36 178.03 423.66 169.4 420.41 163.5L404.24 134.22C399.46 125.56 394.54 116.72 387.14 110.16C377.86 101.95 365.54 98.1001 353.39 95.6701C324.672 89.9565 295.023 90.9455 266.75 98.5601C236.53 106.69 197.71 134.34 239.15 159.42Z" fill="black"/>
<path d="M239.15 156.9C245.31 160.63 252.55 162.1 259.68 163.08C289.416 167.142 319.696 163.74 347.79 153.18C352.39 164.84 363.62 172.85 375.56 176.66C387.5 180.47 400.25 180.66 412.78 180.81C415.54 180.81 418.5 180.81 420.78 179.28C426.36 175.51 423.66 166.88 420.41 160.98L404.24 131.66C399.46 123 394.54 114.16 387.14 107.6C377.86 99.39 365.54 95.54 353.39 93.11C324.672 87.3965 295.023 88.3854 266.75 96C236.53 104.16 197.71 131.81 239.15 156.9Z" fill="#333333"/>
<path d="M424.33 236.57C429.908 236.57 434.43 228.095 434.43 217.64C434.43 207.185 429.908 198.71 424.33 198.71C418.752 198.71 414.23 207.185 414.23 217.64C414.23 228.095 418.752 236.57 424.33 236.57Z" fill="#FDB797"/>
<path d="M194.67 236.57C200.248 236.57 204.77 228.095 204.77 217.64C204.77 207.185 200.248 198.71 194.67 198.71C189.092 198.71 184.57 207.185 184.57 217.64C184.57 228.095 189.092 236.57 194.67 236.57Z" fill="#FDB797"/>
<path d="M336.79 352.49C336.79 352.49 483.63 329.62 453.35 556.76L435.69 621.87L385.21 619.87C385.21 619.87 418.02 544.16 397.83 493.68C377.64 443.2 336.79 352.49 336.79 352.49Z" fill="#6C63FF"/>
<path d="M282.2 352.49C282.2 352.49 135.4 329.62 165.64 556.76L183.3 621.87L233.78 619.87C233.78 619.87 200.97 544.16 221.16 493.68C241.35 443.2 282.2 352.49 282.2 352.49Z" fill="#6C63FF"/>
<path opacity="0.1" d="M218.64 452.58C218.64 452.58 208.54 530.58 226.21 553.29Z" fill="black"/>
<path opacity="0.1" d="M400.35 454.58C400.35 454.58 410.45 530.58 392.78 553.29Z" fill="black"/>
<path d="M404.08 647.44C419.411 647.44 431.84 635.011 431.84 619.68C431.84 604.349 419.411 591.92 404.08 591.92C388.749 591.92 376.32 604.349 376.32 619.68C376.32 635.011 388.749 647.44 404.08 647.44Z" fill="#FDB797"/>
<path d="M214.91 647.44C230.241 647.44 242.67 635.011 242.67 619.68C242.67 604.349 230.241 591.92 214.91 591.92C199.579 591.92 187.15 604.349 187.15 619.68C187.15 635.011 199.579 647.44 214.91 647.44Z" fill="#FDB797"/>
<g opacity="0.7">
<path opacity="0.7" d="M379.47 461H239.38C227.594 461 218.04 470.554 218.04 482.34V601.66C218.04 613.446 227.594 623 239.38 623H379.47C391.256 623 400.81 613.446 400.81 601.66V482.34C400.81 470.554 391.256 461 379.47 461Z" fill="url(#paint1_linear)"/>
</g>
<path d="M376.08 464H242.76C230.974 464 221.42 473.554 221.42 485.34V598.66C221.42 610.446 230.974 620 242.76 620H376.08C387.866 620 397.42 610.446 397.42 598.66V485.34C397.42 473.554 387.866 464 376.08 464Z" fill="#E0E0E0"/>
<path d="M275.85 608.93V597.22C275.855 597.052 275.822 596.884 275.756 596.729C275.689 596.575 275.589 596.436 275.464 596.324C275.338 596.212 275.189 596.128 275.028 596.079C274.867 596.03 274.697 596.017 274.53 596.04C272.865 596.072 271.223 596.436 269.7 597.11V608.9H266.4V587.22H269.69V594.38C271.378 593.721 273.168 593.359 274.98 593.31C277.98 593.31 279.09 595.15 279.09 597.67V608.92H275.83L275.85 608.93ZM285.26 601.85C285.37 605.77 286.14 606.54 288.55 606.54C290.502 606.45 292.423 606.023 294.23 605.28L294.78 607.75C292.772 608.732 290.575 609.264 288.34 609.31C282.85 609.31 282 606.31 282 601.49C281.936 599.06 282.212 596.633 282.82 594.28C284.946 593.555 287.185 593.216 289.43 593.28C293.93 593.28 295.3 595.78 295.3 600.14V601.81H285.3L285.26 601.85ZM289.43 596.06C288.145 596.038 286.86 596.128 285.59 596.33C285.369 597.396 285.249 598.481 285.23 599.57H292.09C292.09 597.29 291.68 596.06 289.43 596.06ZM301.43 597.13V608.92H298.14V595.65C300.507 594.419 303.107 593.7 305.77 593.54V596.28C304.291 596.333 302.829 596.62 301.44 597.13H301.43ZM314.43 609.31C309.52 609.31 307.3 606.9 307.3 601.38C307.3 595.54 310.23 593.32 314.43 593.32C319.34 593.32 321.56 595.73 321.56 601.25C321.56 607.09 318.62 609.31 314.43 609.31ZM314.43 596.06C311.91 596.06 310.51 597.51 310.51 601.38C310.51 605.6 311.69 606.54 314.43 606.54C316.95 606.54 318.35 605.11 318.35 601.25C318.35 597.03 317.17 596.07 314.43 596.07V596.06ZM337.43 608.92H333.56C332.648 606.346 331.253 603.97 329.45 601.92H327.72V608.92H324.5V587.22H327.79V599.67H329.33C330.969 597.918 332.28 595.886 333.2 593.67H336.9C335.698 596.118 334.115 598.359 332.21 600.31C334.279 602.97 336.053 605.847 337.5 608.89L337.43 608.92ZM343.6 609.3C340.6 609.3 339.49 607.46 339.49 604.94V593.71H342.75V605.37C342.746 605.538 342.778 605.706 342.844 605.861C342.911 606.015 343.011 606.154 343.137 606.266C343.262 606.378 343.411 606.462 343.572 606.511C343.733 606.56 343.903 606.573 344.07 606.55C345.79 606.52 347.488 606.156 349.07 605.48V593.71H352.4V606.93C349.75 608.477 346.739 609.298 343.67 609.31L343.6 609.3ZM342.15 581.69H276.58C275.245 581.693 273.922 581.432 272.688 580.923C271.454 580.415 270.332 579.667 269.386 578.725C268.441 577.782 267.691 576.662 267.178 575.43C266.666 574.197 266.401 572.875 266.4 571.54V485.29C266.4 483.956 266.663 482.635 267.173 481.402C267.684 480.169 268.432 479.049 269.376 478.106C270.319 477.162 271.439 476.414 272.672 475.903C273.905 475.393 275.226 475.13 276.56 475.13H342.19C343.528 475.125 344.854 475.384 346.092 475.892C347.33 476.4 348.455 477.147 349.404 478.091C350.352 479.035 351.105 480.157 351.619 481.392C352.133 482.627 352.399 483.952 352.4 485.29V571.54C352.4 572.875 352.137 574.197 351.626 575.43C351.114 576.664 350.365 577.784 349.421 578.728C348.476 579.671 347.355 580.419 346.121 580.929C344.887 581.439 343.565 581.701 342.23 581.7L342.15 581.69Z" fill="#6762A6"/>
<path fill-rule="evenodd" clip-rule="evenodd" d="M277 492L294.51 501.414V518.897H320.102L336.266 528.31H277V492ZM343 525.621V501.414L324.143 492V514.862L343 525.621ZM343 570L325.49 560.586V543.103H299.898L283.734 533.69H343V570ZM277 536.379V560.586L295.857 570V547.138L277 536.379Z" fill="white"/>
<rect x="255" y="587" width="108" height="25" fill="#E0E0E0"/>
<path d="M266.975 590.25V608H262.875V600.725H255.8V608H251.7V590.25H255.8V597.125H262.875V590.25H266.975ZM276.082 608.25C274.582 608.25 273.307 607.933 272.257 607.3C271.224 606.667 270.432 605.833 269.882 604.8C269.332 603.767 269.057 602.65 269.057 601.45C269.057 600.233 269.332 599.108 269.882 598.075C270.432 597.042 271.232 596.208 272.282 595.575C273.332 594.942 274.599 594.625 276.082 594.625C277.565 594.625 278.832 594.942 279.882 595.575C280.932 596.208 281.732 597.042 282.282 598.075C282.832 599.108 283.107 600.233 283.107 601.45C283.107 602.65 282.832 603.767 282.282 604.8C281.732 605.833 280.932 606.667 279.882 607.3C278.832 607.933 277.565 608.25 276.082 608.25ZM273.157 601.45C273.157 602.467 273.432 603.292 273.982 603.925C274.549 604.558 275.249 604.875 276.082 604.875C276.899 604.875 277.582 604.558 278.132 603.925C278.699 603.292 278.982 602.467 278.982 601.45C278.982 600.433 278.699 599.608 278.132 598.975C277.582 598.342 276.899 598.025 276.082 598.025C275.249 598.025 274.549 598.342 273.982 598.975C273.432 599.608 273.157 600.433 273.157 601.45ZM290.116 608.25C288.982 608.25 287.882 608.067 286.816 607.7C285.766 607.317 284.874 606.775 284.141 606.075L285.516 603.55C287.132 604.733 288.624 605.325 289.991 605.325C290.507 605.325 290.907 605.242 291.191 605.075C291.474 604.908 291.616 604.65 291.616 604.3C291.616 603.933 291.424 603.675 291.041 603.525C290.657 603.358 290.091 603.167 289.341 602.95C288.341 602.617 287.507 602.292 286.841 601.975C286.174 601.658 285.674 601.275 285.341 600.825C285.007 600.375 284.841 599.775 284.841 599.025C284.841 597.708 285.332 596.65 286.316 595.85C287.299 595.033 288.632 594.625 290.316 594.625C291.216 594.625 292.091 594.767 292.941 595.05C293.807 595.333 294.616 595.808 295.366 596.475L293.816 598.975C293.066 598.458 292.399 598.083 291.816 597.85C291.232 597.617 290.666 597.5 290.116 597.5C289.682 597.5 289.316 597.583 289.016 597.75C288.716 597.9 288.566 598.167 288.566 598.55C288.566 598.917 288.732 599.192 289.066 599.375C289.399 599.542 289.916 599.725 290.616 599.925C291.682 600.242 292.574 600.567 293.291 600.9C294.024 601.217 294.566 601.617 294.916 602.1C295.282 602.567 295.466 603.192 295.466 603.975C295.466 605.308 294.982 606.358 294.016 607.125C293.049 607.875 291.749 608.25 290.116 608.25ZM305.92 607.3C305.37 607.533 304.737 607.75 304.02 607.95C303.32 608.15 302.612 608.25 301.895 608.25C301.228 608.25 300.62 608.142 300.07 607.925C299.52 607.692 299.078 607.317 298.745 606.8C298.412 606.283 298.245 605.6 298.245 604.75V597.9H296.57V594.875H298.245V590.7H302.245V594.875H304.92V597.9H302.245V603.375C302.245 603.808 302.353 604.125 302.57 604.325C302.787 604.508 303.062 604.6 303.395 604.6C303.695 604.6 304.003 604.55 304.32 604.45C304.637 604.35 304.912 604.242 305.145 604.125L305.92 607.3ZM307.479 593.375V589.75H311.479V593.375H307.479ZM307.479 608V594.875H311.479V608H307.479ZM326.867 608H322.867V600.625C322.867 599.758 322.7 599.133 322.367 598.75C322.05 598.35 321.625 598.15 321.092 598.15C320.542 598.15 319.983 598.367 319.417 598.8C318.85 599.233 318.45 599.792 318.217 600.475V608H314.217V594.875H317.817V597.075C318.3 596.308 318.983 595.708 319.867 595.275C320.75 594.842 321.767 594.625 322.917 594.625C323.767 594.625 324.45 594.783 324.967 595.1C325.5 595.4 325.9 595.8 326.167 596.3C326.45 596.783 326.633 597.317 326.717 597.9C326.817 598.483 326.867 599.05 326.867 599.6V608ZM334.624 608.05C333.458 608.05 332.441 607.75 331.574 607.15C330.708 606.55 330.024 605.75 329.524 604.75C329.041 603.75 328.799 602.642 328.799 601.425C328.799 600.142 329.058 598.992 329.574 597.975C330.091 596.942 330.808 596.125 331.724 595.525C332.641 594.925 333.699 594.625 334.899 594.625C335.883 594.625 336.749 594.842 337.499 595.275C338.249 595.692 338.849 596.275 339.299 597.025V594.875H342.774V607.1C342.774 608.433 342.449 609.583 341.799 610.55C341.166 611.517 340.274 612.258 339.124 612.775C337.991 613.308 336.674 613.575 335.174 613.575C333.774 613.575 332.566 613.342 331.549 612.875C330.549 612.425 329.674 611.783 328.924 610.95L331.074 608.775C331.558 609.325 332.158 609.758 332.874 610.075C333.608 610.408 334.374 610.575 335.174 610.575C335.824 610.575 336.416 610.458 336.949 610.225C337.499 609.992 337.941 609.617 338.274 609.1C338.608 608.6 338.774 607.933 338.774 607.1V605.825C338.374 606.558 337.791 607.117 337.024 607.5C336.274 607.867 335.474 608.05 334.624 608.05ZM335.999 604.875C336.616 604.875 337.166 604.708 337.649 604.375C338.133 604.025 338.508 603.583 338.774 603.05V600.3C338.508 599.617 338.099 599.067 337.549 598.65C336.999 598.233 336.416 598.025 335.799 598.025C335.233 598.025 334.724 598.192 334.274 598.525C333.841 598.842 333.499 599.267 333.249 599.8C332.999 600.333 332.874 600.908 332.874 601.525C332.874 602.492 333.174 603.292 333.774 603.925C334.374 604.558 335.116 604.875 335.999 604.875ZM351.791 608.25C350.307 608.25 349.041 607.942 347.991 607.325C346.941 606.708 346.132 605.892 345.566 604.875C345.016 603.858 344.741 602.758 344.741 601.575C344.741 600.308 345.016 599.15 345.566 598.1C346.116 597.05 346.916 596.208 347.966 595.575C349.016 594.942 350.291 594.625 351.791 594.625C353.274 594.625 354.541 594.942 355.591 595.575C356.641 596.208 357.432 597.042 357.966 598.075C358.516 599.108 358.791 600.217 358.791 601.4C358.791 601.883 358.757 602.308 358.691 602.675H348.991C349.057 603.558 349.374 604.233 349.941 604.7C350.524 605.15 351.182 605.375 351.916 605.375C352.499 605.375 353.057 605.233 353.591 604.95C354.124 604.667 354.491 604.283 354.691 603.8L358.091 604.75C357.574 605.783 356.766 606.625 355.666 607.275C354.582 607.925 353.291 608.25 351.791 608.25ZM348.891 600.225H354.591C354.507 599.392 354.199 598.733 353.666 598.25C353.149 597.75 352.507 597.5 351.741 597.5C350.974 597.5 350.324 597.75 349.791 598.25C349.274 598.75 348.974 599.408 348.891 600.225ZM368.929 598.3C367.962 598.317 367.087 598.475 366.304 598.775C365.52 599.075 364.954 599.525 364.604 600.125V608H360.604V594.875H364.279V597.525C364.729 596.642 365.312 595.95 366.029 595.45C366.745 594.95 367.495 594.692 368.279 594.675C368.612 594.675 368.829 594.683 368.929 594.7V598.3Z" fill="#6762A6"/>
<defs>
<linearGradient id="paint0_linear" x1="309.49" y1="658.44" x2="309.49" y2="-4.52917e-05" gradientUnits="userSpaceOnUse">
<stop stop-color="#808080" stop-opacity="0.25"/>
<stop offset="0.54" stop-color="#808080" stop-opacity="0.12"/>
<stop offset="1" stop-color="#808080" stop-opacity="0.1"/>
</linearGradient>
<linearGradient id="paint1_linear" x1="56770.7" y1="101387" x2="56770.7" y2="75143" gradientUnits="userSpaceOnUse">
<stop stop-color="#808080" stop-opacity="0.25"/>
<stop offset="0.54" stop-color="#808080" stop-opacity="0.12"/>
<stop offset="1" stop-color="#808080" stop-opacity="0.1"/>
</linearGradient>
</defs>
</svg>
