<svg width="164" height="21" viewBox="0 0 164 21" fill="none" xmlns="http://www.w3.org/2000/svg">
<path d="M0.132812 16L5.94081 0.907959H9.98881L15.7968 16H12.2548L11.1768 13.03H4.59881L3.52081 16H0.132812ZM5.54481 10.39H10.2308L8.88881 6.67196C8.83011 6.51066 8.75681 6.31996 8.66881 6.09996C8.59551 5.86526 8.51481 5.60866 8.42681 5.32996C8.33881 5.05126 8.25081 4.77996 8.16281 4.51596C8.08951 4.23726 8.01611 3.98796 7.94281 3.76796H7.81081C7.73751 4.04666 7.64211 4.37666 7.52481 4.75796C7.40751 5.12466 7.29011 5.48396 7.17281 5.83596C7.05551 6.17326 6.96011 6.45196 6.88681 6.67196L5.54481 10.39Z" fill="black"/>
<path d="M17.3281 16V0.0939941H20.3861V16H17.3281Z" fill="black"/>
<path d="M28.4511 16.2641C27.1751 16.2641 26.1044 16.0514 25.2391 15.6261C24.3737 15.1861 23.7211 14.5188 23.2811 13.6241C22.8411 12.7294 22.6211 11.5928 22.6211 10.2141C22.6211 8.82076 22.8411 7.68406 23.2811 6.80406C23.7211 5.90936 24.3664 5.24936 25.2171 4.82406C26.0824 4.38406 27.1384 4.16406 28.3851 4.16406C29.5584 4.16406 30.5484 4.37676 31.3551 4.80206C32.1617 5.21276 32.7704 5.85806 33.1811 6.73806C33.5917 7.60336 33.7971 8.72536 33.7971 10.1041V10.8961H25.7231C25.7524 11.5708 25.8551 12.1428 26.0311 12.6121C26.2217 13.0814 26.5077 13.4334 26.8891 13.6681C27.2851 13.8881 27.8057 13.9981 28.4511 13.9981C28.8031 13.9981 29.1184 13.9541 29.3971 13.8661C29.6904 13.7781 29.9397 13.6461 30.1451 13.4701C30.3504 13.2941 30.5117 13.0741 30.6291 12.8101C30.7464 12.5461 30.8051 12.2454 30.8051 11.9081H33.7971C33.7971 12.6414 33.6651 13.2794 33.4011 13.8221C33.1371 14.3648 32.7704 14.8194 32.3011 15.1861C31.8317 15.5381 31.2671 15.8094 30.6071 16.0001C29.9617 16.1761 29.2431 16.2641 28.4511 16.2641ZM25.7671 8.96006H30.6511C30.6511 8.52006 30.5924 8.13876 30.4751 7.81606C30.3724 7.49336 30.2257 7.22936 30.0351 7.02406C29.8444 6.81876 29.6097 6.67206 29.3311 6.58406C29.0671 6.48136 28.7664 6.43006 28.4291 6.43006C27.8717 6.43006 27.4024 6.52536 27.0211 6.71606C26.6544 6.89206 26.3684 7.17076 26.1631 7.55206C25.9724 7.91876 25.8404 8.38806 25.7671 8.96006Z" fill="black"/>
<path d="M34.7227 16L38.9247 9.99398L35.0307 4.42798H38.7047L40.9047 7.90398H41.0147L43.2367 4.42798H46.6907L42.7747 9.97198L46.9107 16H43.3027L40.7947 12.062H40.6847L38.1767 16H34.7227Z" fill="black"/>
<path d="M55.5415 16.264C53.9725 16.264 52.6305 15.9927 51.5155 15.45C50.4015 14.8927 49.5505 14.0347 48.9635 12.876C48.3915 11.7173 48.1055 10.2433 48.1055 8.45404C48.1055 5.81404 48.7515 3.85604 50.0415 2.58004C51.3475 1.28934 53.1805 0.644043 55.5415 0.644043C56.8325 0.644043 57.9915 0.864044 59.0175 1.30404C60.0445 1.74404 60.8515 2.40404 61.4375 3.28404C62.0395 4.16404 62.3395 5.27134 62.3395 6.60604H59.0395C59.0395 5.90204 58.8935 5.30804 58.5995 4.82404C58.3215 4.34004 57.9175 3.97334 57.3895 3.72404C56.8765 3.46004 56.2755 3.32804 55.5855 3.32804C54.6475 3.32804 53.8695 3.51134 53.2535 3.87804C52.6525 4.24474 52.2055 4.78734 51.9115 5.50604C51.6335 6.21004 51.4935 7.07534 51.4935 8.10204V8.78404C51.4935 9.84004 51.6405 10.7273 51.9335 11.446C52.2275 12.15 52.6675 12.6853 53.2535 13.052C53.8555 13.404 54.6255 13.58 55.5635 13.58C56.2975 13.58 56.9355 13.4553 57.4775 13.206C58.0205 12.9567 58.4385 12.59 58.7315 12.106C59.0255 11.622 59.1715 11.028 59.1715 10.324H62.3395C62.3395 11.6587 62.0465 12.766 61.4595 13.646C60.8875 14.526 60.0885 15.186 59.0615 15.626C58.0355 16.0513 56.8615 16.264 55.5415 16.264Z" fill="black"/>
<path d="M71.7851 16.264C69.4091 16.264 67.5761 15.6333 66.2851 14.372C65.0091 13.096 64.3711 11.1233 64.3711 8.45404C64.3711 6.67934 64.6791 5.22004 65.2951 4.07604C65.9111 2.91734 66.8061 2.05934 67.9791 1.50204C69.1521 0.930044 70.5601 0.644043 72.2031 0.644043C73.1861 0.644043 74.1101 0.754043 74.9751 0.974043C75.8401 1.19404 76.6031 1.53134 77.2631 1.98604C77.9381 2.44074 78.4581 3.01274 78.8251 3.70204C79.2061 4.37674 79.3971 5.18334 79.3971 6.12204H76.0751C76.0751 5.66734 75.9721 5.26404 75.7671 4.91204C75.5761 4.56004 75.3051 4.26674 74.9531 4.03204C74.6011 3.79734 74.1981 3.62134 73.7431 3.50404C73.2881 3.38674 72.8121 3.32804 72.3131 3.32804C71.5501 3.32804 70.8831 3.43074 70.3111 3.63604C69.7391 3.82674 69.2621 4.12734 68.8811 4.53804C68.5141 4.93404 68.2361 5.43274 68.0451 6.03404C67.8541 6.63534 67.7591 7.33204 67.7591 8.12404V8.78404C67.7591 9.88404 67.9201 10.786 68.2431 11.49C68.5661 12.194 69.0501 12.722 69.6951 13.074C70.3401 13.4113 71.1401 13.58 72.0931 13.58C72.8851 13.58 73.5821 13.4627 74.1831 13.228C74.7991 12.9787 75.2761 12.6267 75.6131 12.172C75.9651 11.7173 76.1411 11.16 76.1411 10.5V10.346H71.6311V7.83804H79.3971V16H77.2411L76.9551 14.372C76.5151 14.7973 76.0381 15.1493 75.5251 15.428C75.0261 15.7067 74.4691 15.912 73.8531 16.044C73.2371 16.1907 72.5481 16.264 71.7851 16.264Z" fill="black"/>
<path d="M86.8789 16V0.907959H93.0389C94.6079 0.907959 95.9429 1.17926 97.0429 1.72196C98.1429 2.26466 98.9859 3.09326 99.5729 4.20796C100.174 5.30796 100.475 6.72326 100.475 8.45396C100.475 10.17 100.174 11.5853 99.5729 12.7C98.9859 13.8147 98.1429 14.6433 97.0429 15.186C95.9429 15.7287 94.6079 16 93.0389 16H86.8789ZM90.1569 13.294H93.0169C93.6769 13.294 94.2639 13.1987 94.7769 13.008C95.2899 12.8173 95.7159 12.5387 96.0529 12.172C96.3899 11.7907 96.6469 11.3213 96.8229 10.764C96.9989 10.192 97.0869 9.53196 97.0869 8.78396V8.12396C97.0869 7.37596 96.9989 6.72326 96.8229 6.16596C96.6469 5.59396 96.3899 5.12466 96.0529 4.75796C95.7159 4.37666 95.2899 4.09066 94.7769 3.89996C94.2639 3.69466 93.6769 3.59196 93.0169 3.59196H90.1569V13.294Z" fill="black"/>
<path d="M108.137 16.2641C106.861 16.2641 105.79 16.0514 104.925 15.6261C104.059 15.1861 103.407 14.5188 102.967 13.6241C102.527 12.7294 102.307 11.5928 102.307 10.2141C102.307 8.82076 102.527 7.68406 102.967 6.80406C103.407 5.90936 104.052 5.24936 104.903 4.82406C105.768 4.38406 106.824 4.16406 108.071 4.16406C109.244 4.16406 110.234 4.37676 111.041 4.80206C111.847 5.21276 112.456 5.85806 112.867 6.73806C113.277 7.60336 113.483 8.72536 113.483 10.1041V10.8961H105.409C105.438 11.5708 105.541 12.1428 105.717 12.6121C105.907 13.0814 106.193 13.4334 106.575 13.6681C106.971 13.8881 107.491 13.9981 108.137 13.9981C108.489 13.9981 108.804 13.9541 109.083 13.8661C109.376 13.7781 109.625 13.6461 109.831 13.4701C110.036 13.2941 110.197 13.0741 110.315 12.8101C110.432 12.5461 110.491 12.2454 110.491 11.9081H113.483C113.483 12.6414 113.351 13.2794 113.087 13.8221C112.823 14.3648 112.456 14.8194 111.987 15.1861C111.517 15.5381 110.953 15.8094 110.293 16.0001C109.647 16.1761 108.929 16.2641 108.137 16.2641ZM105.453 8.96006H110.337C110.337 8.52006 110.278 8.13876 110.161 7.81606C110.058 7.49336 109.911 7.22936 109.721 7.02406C109.53 6.81876 109.295 6.67206 109.017 6.58406C108.753 6.48136 108.452 6.43006 108.115 6.43006C107.557 6.43006 107.088 6.52536 106.707 6.71606C106.34 6.89206 106.054 7.17076 105.849 7.55206C105.658 7.91876 105.526 8.38806 105.453 8.96006Z" fill="black"/>
<path d="M120.412 16.2641C119.606 16.2641 118.88 16.1761 118.234 16.0001C117.589 15.8241 117.039 15.5821 116.584 15.2741C116.13 14.9514 115.778 14.5701 115.528 14.1301C115.294 13.6901 115.176 13.1914 115.176 12.6341C115.176 12.5754 115.176 12.5168 115.176 12.4581C115.176 12.3994 115.184 12.3554 115.198 12.3261H118.146C118.146 12.3554 118.146 12.3848 118.146 12.4141C118.146 12.4434 118.146 12.4728 118.146 12.5021C118.161 12.8688 118.278 13.1694 118.498 13.4041C118.718 13.6241 119.004 13.7854 119.356 13.8881C119.723 13.9908 120.104 14.0421 120.5 14.0421C120.852 14.0421 121.19 14.0128 121.512 13.9541C121.85 13.8808 122.128 13.7561 122.348 13.5801C122.583 13.4041 122.7 13.1768 122.7 12.8981C122.7 12.5461 122.554 12.2748 122.26 12.0841C121.982 11.8934 121.608 11.7394 121.138 11.6221C120.684 11.5048 120.185 11.3728 119.642 11.2261C119.144 11.1088 118.645 10.9768 118.146 10.8301C117.648 10.6688 117.193 10.4634 116.782 10.2141C116.386 9.96476 116.064 9.64206 115.814 9.24606C115.565 8.83536 115.44 8.32206 115.44 7.70606C115.44 7.10476 115.572 6.58406 115.836 6.14406C116.1 5.68936 116.46 5.31536 116.914 5.02206C117.384 4.72876 117.926 4.51606 118.542 4.38406C119.173 4.23736 119.848 4.16406 120.566 4.16406C121.241 4.16406 121.872 4.23736 122.458 4.38406C123.045 4.51606 123.558 4.72136 123.998 5.00006C124.438 5.26406 124.783 5.60136 125.032 6.01206C125.282 6.40806 125.406 6.85536 125.406 7.35406C125.406 7.45676 125.406 7.55206 125.406 7.64006C125.406 7.72806 125.399 7.78676 125.384 7.81606H122.458V7.64006C122.458 7.37606 122.378 7.15606 122.216 6.98006C122.055 6.78936 121.82 6.64276 121.512 6.54006C121.219 6.43736 120.86 6.38606 120.434 6.38606C120.141 6.38606 119.87 6.40806 119.62 6.45206C119.386 6.49606 119.18 6.56206 119.004 6.65006C118.828 6.73806 118.689 6.84806 118.586 6.98006C118.498 7.09736 118.454 7.24406 118.454 7.42006C118.454 7.66936 118.557 7.87476 118.762 8.03606C118.982 8.18276 119.268 8.30736 119.62 8.41006C119.972 8.51276 120.361 8.62276 120.786 8.74006C121.314 8.88676 121.864 9.03336 122.436 9.18006C123.023 9.31206 123.566 9.49536 124.064 9.73006C124.563 9.96476 124.966 10.3021 125.274 10.7421C125.582 11.1674 125.736 11.7468 125.736 12.4801C125.736 13.1841 125.597 13.7781 125.318 14.2621C125.054 14.7461 124.68 15.1348 124.196 15.4281C123.712 15.7214 123.148 15.9341 122.502 16.0661C121.857 16.1981 121.16 16.2641 120.412 16.2641Z" fill="black"/>
<path d="M127.951 2.73399V0.0939941H131.009V2.73399H127.951ZM127.951 16V4.42799H131.009V16H127.951Z" fill="black"/>
<path d="M135.708 20.136C135.195 20.136 134.711 20.026 134.256 19.806C133.802 19.6007 133.435 19.2927 133.156 18.882C132.878 18.4713 132.738 17.98 132.738 17.408C132.738 16.7627 132.922 16.2493 133.288 15.868C133.67 15.472 134.095 15.1787 134.564 14.988C134.227 14.7973 133.948 14.548 133.728 14.24C133.523 13.932 133.42 13.5727 133.42 13.162C133.42 12.59 133.626 12.128 134.036 11.776C134.462 11.4093 134.946 11.1747 135.488 11.072C134.946 10.7347 134.52 10.3093 134.212 9.796C133.919 9.268 133.772 8.6813 133.772 8.036C133.772 7.2 133.978 6.496 134.388 5.924C134.814 5.352 135.415 4.9193 136.192 4.626C136.984 4.318 137.916 4.164 138.986 4.164C139.412 4.164 139.808 4.186 140.174 4.23C140.556 4.274 140.9 4.3473 141.208 4.45C141.751 4.1273 142.118 3.7753 142.308 3.394C142.514 2.998 142.624 2.6827 142.638 2.448H145.476C145.476 2.9907 145.374 3.46 145.168 3.856C144.978 4.252 144.699 4.582 144.332 4.846C143.966 5.0953 143.526 5.2787 143.012 5.396C143.394 5.7187 143.687 6.1073 143.892 6.562C144.098 7.0167 144.2 7.508 144.2 8.036C144.2 8.8573 144.002 9.5613 143.606 10.148C143.21 10.72 142.646 11.16 141.912 11.468C141.194 11.776 140.328 11.93 139.316 11.93H137.556C137.204 11.93 136.94 11.996 136.764 12.128C136.588 12.2453 136.5 12.4213 136.5 12.656C136.5 12.8467 136.574 13.0153 136.72 13.162C136.882 13.294 137.138 13.36 137.49 13.36H142.308C143.276 13.36 144.046 13.6607 144.618 14.262C145.205 14.8487 145.498 15.604 145.498 16.528C145.498 17.232 145.315 17.8553 144.948 18.398C144.582 18.9407 144.076 19.366 143.43 19.674C142.785 19.982 142.044 20.136 141.208 20.136H135.708ZM136.984 18.09H141.054C141.318 18.09 141.553 18.0387 141.758 17.936C141.964 17.848 142.125 17.716 142.242 17.54C142.36 17.3787 142.418 17.188 142.418 16.968C142.418 16.5867 142.301 16.3007 142.066 16.11C141.832 15.9193 141.538 15.824 141.186 15.824H136.984C136.632 15.824 136.339 15.9267 136.104 16.132C135.884 16.3373 135.774 16.6087 135.774 16.946C135.774 17.2833 135.884 17.5547 136.104 17.76C136.339 17.98 136.632 18.09 136.984 18.09ZM138.986 9.95C139.705 9.95 140.248 9.7887 140.614 9.466C140.996 9.1287 141.186 8.652 141.186 8.036C141.186 7.42 140.996 6.9507 140.614 6.628C140.248 6.2907 139.705 6.122 138.986 6.122C138.282 6.122 137.74 6.2907 137.358 6.628C136.992 6.9507 136.808 7.42 136.808 8.036C136.808 8.432 136.889 8.7767 137.05 9.07C137.212 9.3633 137.454 9.5833 137.776 9.73C138.099 9.8767 138.502 9.95 138.986 9.95Z" fill="black"/>
<path d="M147.18 16.0001V4.42806H149.71L149.951 6.01206H150.105C150.369 5.63076 150.685 5.30076 151.051 5.02206C151.433 4.74336 151.858 4.53076 152.327 4.38406C152.797 4.23736 153.31 4.16406 153.867 4.16406C154.63 4.16406 155.297 4.30336 155.869 4.58206C156.441 4.86076 156.881 5.30076 157.189 5.90206C157.512 6.50336 157.673 7.28806 157.673 8.25606V16.0001H154.615V8.74006C154.615 8.37336 154.572 8.06536 154.484 7.81606C154.396 7.55206 154.263 7.33936 154.087 7.17806C153.926 7.00206 153.721 6.87736 153.471 6.80406C153.222 6.73076 152.943 6.69406 152.635 6.69406C152.181 6.69406 151.77 6.80406 151.404 7.02406C151.037 7.24406 150.751 7.54476 150.546 7.92606C150.34 8.30736 150.238 8.74736 150.238 9.24606V16.0001H147.18Z" fill="black"/>
<path d="M160.787 16V12.854H163.977V16H160.787Z" fill="black"/>
</svg>
